<svg width="28" height="31" viewBox="0 0 28 31" fill="none" xmlns="http://www.w3.org/2000/svg">
<path d="M25.0527 0H10.316C8.69051 0 7.36863 1.36414 7.36863 3.04157V11.5367L0.432064 18.695C0.0105946 19.1299 -0.116141 19.7839 0.112278 20.3527C0.340697 20.9214 0.878586 21.291 1.47395 21.291V22.8118V28.8949C1.47395 29.7359 2.13415 30.4157 2.94762 30.4157H14.737H26.5263C27.3413 30.4157 28 29.7359 28 28.8949V3.04157C28 1.36414 26.6781 0 25.0527 0ZM13.2633 27.3741H4.42129V22.8118V19.7702V18.879L8.8423 14.3167L13.2633 18.879V19.7702V24.3325V27.3741ZM25.0527 27.3741H16.2106V24.3325V21.291C16.806 21.291 17.3454 20.9214 17.5723 20.3527C17.8007 19.7839 17.674 19.1299 17.2525 18.695L10.316 11.5367V3.04157H25.0527V27.3741Z" fill="black"/>
<path d="M13.2633 6.08313H16.2107V9.1247H13.2633V6.08313ZM19.158 6.08313H22.1053V9.1247H19.158V6.08313ZM19.158 12.2134H22.1053V15.2078H19.158V12.2134ZM19.158 18.2494H22.1053V21.291H19.158V18.2494ZM7.36865 19.7702H10.316V22.8118H7.36865V19.7702Z" fill="black"/>
</svg>
