<svg width="281" height="56" viewBox="0 0 281 56" fill="none" xmlns="http://www.w3.org/2000/svg">
  <path d="M113.688 48.416C113.688 47.328 113.933 46.352 114.424 45.488C114.915 44.6133 115.581 43.9307 116.424 43.44C117.277 42.9493 118.221 42.704 119.256 42.704C120.472 42.704 121.533 42.9973 122.44 43.584C123.347 44.1707 124.008 45.0027 124.424 46.08H122.68C122.371 45.408 121.923 44.8907 121.336 44.528C120.76 44.1653 120.067 43.984 119.256 43.984C118.477 43.984 117.779 44.1653 117.16 44.528C116.541 44.8907 116.056 45.408 115.704 46.08C115.352 46.7413 115.176 47.52 115.176 48.416C115.176 49.3013 115.352 50.08 115.704 50.752C116.056 51.4133 116.541 51.9253 117.16 52.288C117.779 52.6507 118.477 52.832 119.256 52.832C120.067 52.832 120.76 52.656 121.336 52.304C121.923 51.9413 122.371 51.424 122.68 50.752H124.424C124.008 51.8187 123.347 52.6453 122.44 53.232C121.533 53.808 120.472 54.096 119.256 54.096C118.221 54.096 117.277 53.856 116.424 53.376C115.581 52.8853 114.915 52.208 114.424 51.344C113.933 50.48 113.688 49.504 113.688 48.416ZM130.415 54.144C129.594 54.144 128.847 53.9573 128.175 53.584C127.514 53.2107 126.991 52.6827 126.607 52C126.234 51.3067 126.047 50.5067 126.047 49.6C126.047 48.704 126.239 47.9147 126.623 47.232C127.018 46.5387 127.551 46.0107 128.223 45.648C128.895 45.2747 129.647 45.088 130.479 45.088C131.311 45.088 132.063 45.2747 132.735 45.648C133.407 46.0107 133.935 46.5333 134.319 47.216C134.714 47.8987 134.911 48.6933 134.911 49.6C134.911 50.5067 134.709 51.3067 134.303 52C133.909 52.6827 133.37 53.2107 132.687 53.584C132.005 53.9573 131.247 54.144 130.415 54.144ZM130.415 52.864C130.938 52.864 131.429 52.7413 131.887 52.496C132.346 52.2507 132.714 51.8827 132.991 51.392C133.279 50.9013 133.423 50.304 133.423 49.6C133.423 48.896 133.285 48.2987 133.007 47.808C132.73 47.3173 132.367 46.9547 131.919 46.72C131.471 46.4747 130.986 46.352 130.463 46.352C129.93 46.352 129.439 46.4747 128.991 46.72C128.554 46.9547 128.202 47.3173 127.935 47.808C127.669 48.2987 127.535 48.896 127.535 49.6C127.535 50.3147 127.663 50.9173 127.919 51.408C128.186 51.8987 128.538 52.2667 128.975 52.512C129.413 52.7467 129.893 52.864 130.415 52.864ZM141.098 45.072C142.164 45.072 143.028 45.3973 143.69 46.048C144.351 46.688 144.682 47.616 144.682 48.832V54H143.242V49.04C143.242 48.1653 143.023 47.4987 142.586 47.04C142.148 46.5707 141.551 46.336 140.794 46.336C140.026 46.336 139.412 46.576 138.954 47.056C138.506 47.536 138.282 48.2347 138.282 49.152V54H136.826V45.232H138.282V46.48C138.57 46.032 138.959 45.6853 139.45 45.44C139.951 45.1947 140.5 45.072 141.098 45.072ZM150.164 54.144C149.492 54.144 148.889 54.032 148.356 53.808C147.823 53.5733 147.401 53.2533 147.092 52.848C146.783 52.432 146.612 51.9573 146.58 51.424H148.084C148.127 51.8613 148.329 52.2187 148.692 52.496C149.065 52.7733 149.551 52.912 150.148 52.912C150.703 52.912 151.14 52.7893 151.46 52.544C151.78 52.2987 151.94 51.9893 151.94 51.616C151.94 51.232 151.769 50.9493 151.428 50.768C151.087 50.576 150.559 50.3893 149.844 50.208C149.193 50.0373 148.66 49.8667 148.244 49.696C147.839 49.5147 147.487 49.2533 147.188 48.912C146.9 48.56 146.756 48.1013 146.756 47.536C146.756 47.088 146.889 46.6773 147.156 46.304C147.423 45.9307 147.801 45.6373 148.292 45.424C148.783 45.2 149.343 45.088 149.972 45.088C150.943 45.088 151.727 45.3333 152.324 45.824C152.921 46.3147 153.241 46.9867 153.284 47.84H151.828C151.796 47.3813 151.609 47.0133 151.268 46.736C150.937 46.4587 150.489 46.32 149.924 46.32C149.401 46.32 148.985 46.432 148.676 46.656C148.367 46.88 148.212 47.1733 148.212 47.536C148.212 47.824 148.303 48.064 148.484 48.256C148.676 48.4373 148.911 48.5867 149.188 48.704C149.476 48.8107 149.871 48.9333 150.372 49.072C151.001 49.2427 151.513 49.4133 151.908 49.584C152.303 49.744 152.639 49.9893 152.916 50.32C153.204 50.6507 153.353 51.0827 153.364 51.616C153.364 52.096 153.231 52.528 152.964 52.912C152.697 53.296 152.319 53.6 151.828 53.824C151.348 54.0373 150.793 54.144 150.164 54.144ZM157.196 46.432V51.6C157.196 52.0267 157.286 52.3307 157.468 52.512C157.649 52.6827 157.964 52.768 158.411 52.768H159.484V54H158.172C157.361 54 156.753 53.8133 156.348 53.44C155.942 53.0667 155.74 52.4533 155.74 51.6V46.432H154.604V45.232H155.74V43.024H157.196V45.232H159.484V46.432H157.196ZM162.704 46.656C162.96 46.1547 163.322 45.7653 163.792 45.488C164.272 45.2107 164.853 45.072 165.536 45.072V46.576H165.152C163.52 46.576 162.704 47.4613 162.704 49.232V54H161.248V45.232H162.704V46.656ZM174.992 45.232V54H173.536V52.704C173.259 53.152 172.87 53.504 172.368 53.76C171.878 54.0053 171.334 54.128 170.736 54.128C170.054 54.128 169.44 53.9893 168.896 53.712C168.352 53.424 167.92 52.9973 167.6 52.432C167.291 51.8667 167.136 51.1787 167.136 50.368V45.232H168.576V50.176C168.576 51.04 168.795 51.7067 169.232 52.176C169.67 52.6347 170.267 52.864 171.024 52.864C171.803 52.864 172.416 52.624 172.864 52.144C173.312 51.664 173.536 50.9653 173.536 50.048V45.232H174.992ZM179.227 46.432V51.6C179.227 52.0267 179.317 52.3307 179.499 52.512C179.68 52.6827 179.995 52.768 180.443 52.768H181.515V54H180.203C179.392 54 178.784 53.8133 178.379 53.44C177.973 53.0667 177.771 52.4533 177.771 51.6V46.432H176.635V45.232H177.771V43.024H179.227V45.232H181.515V46.432H179.227ZM187.103 54.144C186.282 54.144 185.535 53.9573 184.863 53.584C184.202 53.2107 183.679 52.6827 183.295 52C182.922 51.3067 182.735 50.5067 182.735 49.6C182.735 48.704 182.927 47.9147 183.311 47.232C183.706 46.5387 184.239 46.0107 184.911 45.648C185.583 45.2747 186.335 45.088 187.167 45.088C187.999 45.088 188.751 45.2747 189.423 45.648C190.095 46.0107 190.623 46.5333 191.007 47.216C191.402 47.8987 191.599 48.6933 191.599 49.6C191.599 50.5067 191.396 51.3067 190.991 52C190.596 52.6827 190.058 53.2107 189.375 53.584C188.692 53.9573 187.935 54.144 187.103 54.144ZM187.103 52.864C187.626 52.864 188.116 52.7413 188.575 52.496C189.034 52.2507 189.402 51.8827 189.679 51.392C189.967 50.9013 190.111 50.304 190.111 49.6C190.111 48.896 189.972 48.2987 189.695 47.808C189.418 47.3173 189.055 46.9547 188.607 46.72C188.159 46.4747 187.674 46.352 187.151 46.352C186.618 46.352 186.127 46.4747 185.679 46.72C185.242 46.9547 184.89 47.3173 184.623 47.808C184.356 48.2987 184.223 48.896 184.223 49.6C184.223 50.3147 184.351 50.9173 184.607 51.408C184.874 51.8987 185.226 52.2667 185.663 52.512C186.1 52.7467 186.58 52.864 187.103 52.864ZM194.969 46.656C195.225 46.1547 195.588 45.7653 196.057 45.488C196.537 45.2107 197.119 45.072 197.801 45.072V46.576H197.417C195.785 46.576 194.969 47.4613 194.969 49.232V54H193.513V45.232H194.969V46.656ZM198.938 49.584C198.938 48.688 199.119 47.904 199.482 47.232C199.845 46.5493 200.341 46.0213 200.97 45.648C201.61 45.2747 202.319 45.088 203.098 45.088C203.866 45.088 204.533 45.2533 205.098 45.584C205.663 45.9147 206.085 46.3307 206.362 46.832V45.232H207.834V54H206.362V52.368C206.074 52.88 205.642 53.3067 205.066 53.648C204.501 53.9787 203.839 54.144 203.082 54.144C202.303 54.144 201.599 53.952 200.97 53.568C200.341 53.184 199.845 52.6453 199.482 51.952C199.119 51.2587 198.938 50.4693 198.938 49.584ZM206.362 49.6C206.362 48.9387 206.229 48.3627 205.962 47.872C205.695 47.3813 205.333 47.008 204.874 46.752C204.426 46.4853 203.93 46.352 203.386 46.352C202.842 46.352 202.346 46.48 201.898 46.736C201.45 46.992 201.093 47.3653 200.826 47.856C200.559 48.3467 200.426 48.9227 200.426 49.584C200.426 50.256 200.559 50.8427 200.826 51.344C201.093 51.8347 201.45 52.2133 201.898 52.48C202.346 52.736 202.842 52.864 203.386 52.864C203.93 52.864 204.426 52.736 204.874 52.48C205.333 52.2133 205.695 51.8347 205.962 51.344C206.229 50.8427 206.362 50.2613 206.362 49.6ZM222.016 46.112C222.016 47.04 221.696 47.8133 221.056 48.432C220.427 49.04 219.461 49.344 218.16 49.344H216.016V54H214.56V42.848H218.16C219.419 42.848 220.373 43.152 221.024 43.76C221.685 44.368 222.016 45.152 222.016 46.112ZM218.16 48.144C218.971 48.144 219.568 47.968 219.952 47.616C220.336 47.264 220.528 46.7627 220.528 46.112C220.528 44.736 219.739 44.048 218.16 44.048H216.016V48.144H218.16ZM225.282 42.16V54H223.826V42.16H225.282ZM227.219 49.584C227.219 48.688 227.401 47.904 227.763 47.232C228.126 46.5493 228.622 46.0213 229.251 45.648C229.891 45.2747 230.601 45.088 231.379 45.088C232.147 45.088 232.814 45.2533 233.379 45.584C233.945 45.9147 234.366 46.3307 234.643 46.832V45.232H236.115V54H234.643V52.368C234.355 52.88 233.923 53.3067 233.347 53.648C232.782 53.9787 232.121 54.144 231.363 54.144C230.585 54.144 229.881 53.952 229.251 53.568C228.622 53.184 228.126 52.6453 227.763 51.952C227.401 51.2587 227.219 50.4693 227.219 49.584ZM234.643 49.6C234.643 48.9387 234.51 48.3627 234.243 47.872C233.977 47.3813 233.614 47.008 233.155 46.752C232.707 46.4853 232.211 46.352 231.667 46.352C231.123 46.352 230.627 46.48 230.179 46.736C229.731 46.992 229.374 47.3653 229.107 47.856C228.841 48.3467 228.707 48.9227 228.707 49.584C228.707 50.256 228.841 50.8427 229.107 51.344C229.374 51.8347 229.731 52.2133 230.179 52.48C230.627 52.736 231.123 52.864 231.667 52.864C232.211 52.864 232.707 52.736 233.155 52.48C233.614 52.2133 233.977 51.8347 234.243 51.344C234.51 50.8427 234.643 50.2613 234.643 49.6ZM242.848 45.072C243.914 45.072 244.778 45.3973 245.44 46.048C246.101 46.688 246.432 47.616 246.432 48.832V54H244.992V49.04C244.992 48.1653 244.773 47.4987 244.336 47.04C243.898 46.5707 243.301 46.336 242.544 46.336C241.776 46.336 241.162 46.576 240.704 47.056C240.256 47.536 240.032 48.2347 240.032 49.152V54H238.576V45.232H240.032V46.48C240.32 46.032 240.709 45.6853 241.2 45.44C241.701 45.1947 242.25 45.072 242.848 45.072ZM256.81 49.28C256.81 49.5573 256.794 49.8507 256.762 50.16H249.754C249.807 51.024 250.101 51.7013 250.634 52.192C251.178 52.672 251.834 52.912 252.602 52.912C253.231 52.912 253.754 52.768 254.17 52.48C254.597 52.1813 254.895 51.7867 255.066 51.296H256.634C256.399 52.1387 255.93 52.8267 255.226 53.36C254.522 53.8827 253.647 54.144 252.602 54.144C251.77 54.144 251.023 53.9573 250.362 53.584C249.711 53.2107 249.199 52.6827 248.826 52C248.453 51.3067 248.266 50.5067 248.266 49.6C248.266 48.6933 248.447 47.8987 248.81 47.216C249.173 46.5333 249.679 46.0107 250.33 45.648C250.991 45.2747 251.749 45.088 252.602 45.088C253.434 45.088 254.17 45.2693 254.81 45.632C255.45 45.9947 255.941 46.496 256.282 47.136C256.634 47.7653 256.81 48.48 256.81 49.28ZM255.306 48.976C255.306 48.4213 255.183 47.9467 254.938 47.552C254.693 47.1467 254.357 46.8427 253.93 46.64C253.514 46.4267 253.05 46.32 252.538 46.32C251.802 46.32 251.173 46.5547 250.65 47.024C250.138 47.4933 249.845 48.144 249.77 48.976H255.306ZM260.508 46.432V51.6C260.508 52.0267 260.599 52.3307 260.78 52.512C260.961 52.6827 261.276 52.768 261.724 52.768H262.796V54H261.484C260.673 54 260.065 53.8133 259.66 53.44C259.255 53.0667 259.052 52.4533 259.052 51.6V46.432H257.916V45.232H259.052V43.024H260.508V45.232H262.796V46.432H260.508ZM264.016 49.584C264.016 48.688 264.197 47.904 264.56 47.232C264.923 46.5493 265.419 46.0213 266.048 45.648C266.688 45.2747 267.397 45.088 268.176 45.088C268.944 45.088 269.611 45.2533 270.176 45.584C270.741 45.9147 271.163 46.3307 271.44 46.832V45.232H272.912V54H271.44V52.368C271.152 52.88 270.72 53.3067 270.144 53.648C269.579 53.9787 268.917 54.144 268.16 54.144C267.381 54.144 266.677 53.952 266.048 53.568C265.419 53.184 264.923 52.6453 264.56 51.952C264.197 51.2587 264.016 50.4693 264.016 49.584ZM271.44 49.6C271.44 48.9387 271.307 48.3627 271.04 47.872C270.773 47.3813 270.411 47.008 269.952 46.752C269.504 46.4853 269.008 46.352 268.464 46.352C267.92 46.352 267.424 46.48 266.976 46.736C266.528 46.992 266.171 47.3653 265.904 47.856C265.637 48.3467 265.504 48.9227 265.504 49.584C265.504 50.256 265.637 50.8427 265.904 51.344C266.171 51.8347 266.528 52.2133 266.976 52.48C267.424 52.736 267.92 52.864 268.464 52.864C269.008 52.864 269.504 52.736 269.952 52.48C270.411 52.2133 270.773 51.8347 271.04 51.344C271.307 50.8427 271.44 50.2613 271.44 49.6Z" fill="#F9EDEA"/>
  <path d="M71.304 37.336C69.096 37.336 67.112 36.952 65.352 36.184C63.624 35.384 62.264 34.296 61.272 32.92C60.28 31.512 59.768 29.896 59.736 28.072H64.392C64.552 29.64 65.192 30.968 66.312 32.056C67.464 33.112 69.128 33.64 71.304 33.64C73.384 33.64 75.016 33.128 76.2 32.104C77.416 31.048 78.024 29.704 78.024 28.072C78.024 26.792 77.672 25.752 76.968 24.952C76.264 24.152 75.384 23.544 74.328 23.128C73.272 22.712 71.848 22.264 70.056 21.784C67.848 21.208 66.072 20.632 64.728 20.056C63.416 19.48 62.28 18.584 61.32 17.368C60.392 16.12 59.928 14.456 59.928 12.376C59.928 10.552 60.392 8.936 61.32 7.528C62.248 6.12 63.544 5.032 65.208 4.264C66.904 3.496 68.84 3.112 71.016 3.112C74.152 3.112 76.712 3.896 78.696 5.464C80.712 7.032 81.848 9.112 82.104 11.704H77.304C77.144 10.424 76.472 9.304 75.288 8.344C74.104 7.352 72.536 6.856 70.584 6.856C68.76 6.856 67.272 7.336 66.12 8.296C64.968 9.224 64.392 10.536 64.392 12.232C64.392 13.448 64.728 14.44 65.4 15.208C66.104 15.976 66.952 16.568 67.944 16.984C68.968 17.368 70.392 17.816 72.216 18.328C74.424 18.936 76.2 19.544 77.544 20.152C78.888 20.728 80.04 21.64 81 22.888C81.96 24.104 82.44 25.768 82.44 27.88C82.44 29.512 82.008 31.048 81.144 32.488C80.28 33.928 79 35.096 77.304 35.992C75.608 36.888 73.608 37.336 71.304 37.336ZM93.1399 3.544V24.712C93.1399 27.688 93.8599 29.896 95.2999 31.336C96.7719 32.776 98.8039 33.496 101.396 33.496C103.956 33.496 105.956 32.776 107.396 31.336C108.868 29.896 109.604 27.688 109.604 24.712V3.544H113.972V24.664C113.972 27.448 113.412 29.8 112.292 31.72C111.172 33.608 109.652 35.016 107.732 35.944C105.844 36.872 103.716 37.336 101.348 37.336C98.9799 37.336 96.8359 36.872 94.9159 35.944C93.0279 35.016 91.5239 33.608 90.4039 31.72C89.3159 29.8 88.7719 27.448 88.7719 24.664V3.544H93.1399ZM147.562 37H143.195L125.627 10.36V37H121.259V3.496H125.627L143.195 30.088V3.496H147.562V37ZM159.377 33.448H171.089V37H155.009V3.544H159.377V33.448ZM180.095 3.544V37H175.727V3.544H180.095ZM212.884 13.24C211.956 11.288 210.612 9.784 208.852 8.728C207.092 7.64 205.044 7.096 202.708 7.096C200.372 7.096 198.26 7.64 196.372 8.728C194.516 9.784 193.044 11.32 191.956 13.336C190.9 15.32 190.372 17.624 190.372 20.248C190.372 22.872 190.9 25.176 191.956 27.16C193.044 29.144 194.516 30.68 196.372 31.768C198.26 32.824 200.372 33.352 202.708 33.352C205.972 33.352 208.66 32.376 210.772 30.424C212.884 28.472 214.116 25.832 214.468 22.504H201.124V18.952H219.124V22.312C218.868 25.064 218.004 27.592 216.532 29.896C215.06 32.168 213.124 33.976 210.724 35.32C208.324 36.632 205.652 37.288 202.708 37.288C199.604 37.288 196.772 36.568 194.212 35.128C191.652 33.656 189.62 31.624 188.116 29.032C186.644 26.44 185.908 23.512 185.908 20.248C185.908 16.984 186.644 14.056 188.116 11.464C189.62 8.84 191.652 6.808 194.212 5.368C196.772 3.896 199.604 3.16 202.708 3.16C206.26 3.16 209.396 4.04 212.116 5.8C214.868 7.56 216.868 10.04 218.116 13.24H212.884ZM250.675 3.544V37H246.307V21.832H229.267V37H224.899V3.544H229.267V18.232H246.307V3.544H250.675ZM278.726 3.544V7.096H269.606V37H265.238V7.096H256.07V3.544H278.726Z" fill="#F9EDEA"/>
  <path d="M0 0H23.6178V24.1825H0V0Z" fill="#F8F4E5"/>
  <path d="M0 27.8178H23.6178V52H15.0101C11.0292 52 7.21132 50.3808 4.39637 47.4986C1.58142 44.6164 0 40.7073 0 36.6312L0 27.8178Z" fill="#F8F4E5"/>
  <path d="M51 12.093C50.9887 15.3102 49.7299 18.3912 47.5005 20.6583C45.2711 22.9254 42.2535 24.1931 39.1113 24.1826H27.2201V0.00312734H39.1113C40.6673 -0.00249656 42.2091 0.305777 43.6487 0.910342C45.0884 1.51491 46.3975 2.40392 47.5015 3.52661C48.6055 4.64929 49.4827 5.98366 50.083 7.4535C50.6833 8.92334 50.9949 10.4999 51 12.093Z" fill="#F8F4E5"/>
  <path d="M50.9999 39.6788C50.989 42.8962 49.7303 45.9773 47.5008 48.2446C45.2713 50.5119 42.2535 51.7795 39.1112 51.7687C37.5552 51.7743 36.0133 51.466 34.5736 50.8614C33.1339 50.2569 31.8246 49.3679 30.7205 48.2452C29.6164 47.1226 28.739 45.7882 28.1385 44.3184C27.5381 42.8486 27.2262 41.272 27.2208 39.6788C27.2262 38.0856 27.5381 36.509 28.1385 35.0392C28.739 33.5694 29.6164 32.235 30.7205 31.1124C31.8246 29.9897 33.1339 29.1007 34.5736 28.4962C36.0133 27.8916 37.5552 27.5833 39.1112 27.5889C42.2535 27.5781 45.2713 28.8457 47.5008 31.113C49.7303 33.3803 50.989 36.4614 50.9999 39.6788Z" fill="#C2DB6F"/>
</svg>
